<svg xmlns="http://www.w3.org/2000/svg" viewBox="0 0 1080 1080" width="1080" height="1080" role="img" aria-label="OPUS Thread Card 4 — The Receipt">
  <rect width="1080" height="1080" fill="#000"/>

  <!-- ── EYEBROW ─────────────────────────────────────── -->
  <text x="540" y="135" text-anchor="middle"
        font-family="'JetBrains Mono','Courier New',monospace"
        font-size="26" letter-spacing="7"
        fill="#D4AF7A">§ III &#183; WHAT YOU GET</text>

  <g>
    <line x1="430" y1="168" x2="520" y2="168" stroke="#D4AF7A" stroke-width="0.6" opacity="0.55"/>
    <circle cx="540" cy="168" r="2.6" fill="#D4AF7A"/>
    <line x1="560" y1="168" x2="650" y2="168" stroke="#D4AF7A" stroke-width="0.6" opacity="0.55"/>
  </g>

  <!-- ── SIGIL: consensus + verifier lance ───────────── -->
  <svg x="230" y="200" width="620" height="620" viewBox="0 0 1080 1080" preserveAspectRatio="xMidYMid meet">
    <g stroke="#787870" stroke-width="1" fill="none" opacity="0.55">
      <path d="M40 40 L40 90 M40 40 L90 40"/>
      <path d="M1040 40 L1040 90 M1040 40 L990 40"/>
      <path d="M40 1040 L40 990 M40 1040 L90 1040"/>
      <path d="M1040 1040 L1040 990 M1040 1040 L990 1040"/>
    </g>
    <g transform="translate(540,540)" stroke="#F2EFE6" stroke-width="1.6" fill="none">
      <circle cx="0" cy="0" r="340" stroke-dasharray="3 6" opacity="0.45"/>
      <circle cx="0" cy="0" r="240" opacity="0.55"/>
      <g>
        <circle cx="0" cy="-240" r="20"/>
        <circle cx="208" cy="-120" r="20"/>
        <circle cx="208" cy="120" r="20"/>
        <circle cx="0" cy="240" r="20"/>
        <circle cx="-208" cy="120" r="20"/>
        <circle cx="-208" cy="-120" r="20"/>
      </g>
      <g opacity="0.5">
        <line x1="0" y1="-220" x2="0" y2="-50"/>
        <line x1="190" y1="-110" x2="44" y2="-25"/>
        <line x1="190" y1="110" x2="44" y2="25"/>
        <line x1="0" y1="220" x2="0" y2="50"/>
        <line x1="-190" y1="110" x2="-44" y2="25"/>
        <line x1="-190" y1="-110" x2="-44" y2="-25"/>
      </g>
      <g transform="rotate(45)">
        <rect x="-50" y="-50" width="100" height="100" stroke="#D4AF7A" stroke-width="2.4" fill="#000"/>
        <rect x="-22" y="-22" width="44" height="44" fill="#D4AF7A" stroke="none"/>
      </g>
      <g stroke="#D4AF7A" stroke-width="2.6" fill="none">
        <line x1="340" y1="-340" x2="80" y2="-80"/>
        <path d="M70,-80 L80,-80 L80,-90"/>
      </g>
      <circle cx="356" cy="-356" r="6" fill="#D4AF7A" stroke="none"/>
    </g>
  </svg>

  <g>
    <line x1="430" y1="870" x2="520" y2="870" stroke="#D4AF7A" stroke-width="0.6" opacity="0.55"/>
    <circle cx="540" cy="870" r="2.6" fill="#D4AF7A"/>
    <line x1="560" y1="870" x2="650" y2="870" stroke="#D4AF7A" stroke-width="0.6" opacity="0.55"/>
  </g>

  <!-- ── TITLE ───────────────────────────────────────── -->
  <text x="540" y="945" text-anchor="middle"
        font-family="Cinzel,'Trajan Pro','Times New Roman',serif"
        font-size="56" letter-spacing="4"
        fill="#F2EFE6">VERDICT &#183; COST &#183; PROVENANCE</text>

  <!-- ── FOOTER ──────────────────────────────────────── -->
  <text x="540" y="1020" text-anchor="middle"
        font-family="'JetBrains Mono','Courier New',monospace"
        font-size="18" letter-spacing="5"
        fill="#787870">OPUS &#183; MMXXVI &#183; tryopusai.com</text>
</svg>
